<svg xmlns="http://www.w3.org/2000/svg" width="512" height="512" viewBox="0 0 512 512" version="1.1"><path d="M 231.592 19.057 C 219.073 20.359, 219.392 21.290, 232.022 20.311 C 442.427 4.016, 571.455 233.450, 446.113 401 C 337.954 545.581, 109.529 517.583, 38.176 351 C -22.736 208.792, 61.581 53.727, 217 22.129 C 219.658 21.589, 220.477 21.177, 219 21.123 C 215.224 20.985, 198.755 24.634, 187.500 28.103 C 64.899 65.891, -5.981 191.399, 24.545 316.651 C 26.249 323.644, 31.520 340.495, 32.944 343.500 C 35.975 349.899, 38 355.085, 38 356.445 C 38 357.300, 38.450 358, 39 358 C 39.550 358, 40 358.505, 40 359.122 C 40 359.898, 39.536 359.860, 38.500 359 C 37.675 358.315, 37 356.884, 37 355.819 C 37 354.552, 36.567 354.131, 35.750 354.601 C 35.063 354.997, 34.834 354.952, 35.241 354.502 C 36.829 352.750, 33.619 351, 28.819 351 C 25.135 351, 24.073 350.683, 24.633 349.750 C 25.131 348.921, 24.806 348.969, 23.669 349.891 C 22.587 350.769, 22.165 352.060, 22.525 353.391 C 23.035 355.275, 22.977 355.311, 21.987 353.730 C 21.356 352.723, 21.202 350.998, 21.628 349.730 C 23.027 345.571, 22.981 344.771, 21.420 346.067 C 20.060 347.195, 19.546 346.645, 19.953 344.500 C 20.062 343.927, 19.660 343.973, 19.013 344.609 C 17.779 345.819, 20.944 356.431, 23.139 358.442 C 23.989 359.220, 24.126 359.024, 23.659 357.698 C 23.309 356.707, 23.413 356.137, 23.891 356.432 C 24.368 356.727, 24.996 357.876, 25.286 358.986 C 25.604 360.203, 25.412 360.754, 24.800 360.376 C 22.332 358.851, 27.613 370.173, 36.150 384.707 C 132.306 548.416, 364.152 554.992, 469.542 397 C 481.639 378.865, 496.699 347.905, 498.646 337.170 C 498.893 335.806, 499.506 333.923, 500.008 332.985 C 500.510 332.047, 502.093 326.379, 503.526 320.390 C 504.958 314.400, 506.353 308.825, 506.625 308 C 506.942 307.035, 506.785 306.857, 506.183 307.500 C 505.668 308.050, 504.225 312.873, 502.977 318.218 C 501.621 324.022, 500.300 327.686, 499.699 327.314 C 499.133 326.964, 498.999 327.189, 499.392 327.825 C 500.222 329.169, 498.022 337.132, 496.996 336.498 C 496.607 336.257, 496.514 337.239, 496.789 338.679 C 497.166 340.649, 496.968 341.098, 495.990 340.494 C 495.173 339.989, 494.935 340.086, 495.349 340.755 C 496.156 342.062, 495.078 345.166, 494.040 344.525 C 493.627 344.269, 493.521 345.284, 493.806 346.780 C 494.288 349.321, 494.197 349.405, 492.411 348.048 C 490.911 346.909, 490.769 346.898, 491.750 347.998 C 494.059 350.588, 493.034 351.139, 486.362 350.897 C 480.866 350.698, 479.490 350.977, 478.362 352.519 C 476.458 355.123, 476.560 352.367, 478.506 348.636 C 479.328 347.060, 480.003 345.260, 480.006 344.636 C 480.010 344.011, 480.642 342.293, 481.412 340.817 C 482.182 339.342, 483.131 336.642, 483.521 334.817 C 483.912 332.993, 484.569 331.050, 484.981 330.500 C 489.049 325.079, 494.991 288.394, 495.673 264.500 C 499.808 119.520, 375.601 4.079, 231.592 19.057 M 239.500 84.603 C 160.745 95.934, 107.569 143.365, 88.021 219.716 C 87.102 223.304, 86.312 224.214, 82.721 225.819 C 77.975 227.941, 74.059 231.562, 70.743 236.893 C 68.134 241.088, 66.638 329.229, 69.025 338.095 C 72.293 350.231, 81.438 354.949, 101.750 354.978 C 117 355, 117 355, 117 289.500 C 117 224, 117 224, 111 224 C 103.594 224, 103.627 224.241, 108.880 208.242 C 155.227 67.101, 356.758 66.254, 404.314 207 C 409.828 223.319, 409.814 223.437, 402.243 223.798 C 386.254 224.559, 394.442 354.457, 410.500 354.794 C 444.321 355.505, 446 352.393, 446 288.997 C 446 235.729, 445.167 232.190, 431.212 226.187 C 426.337 224.090, 426.337 224.090, 424.074 214.795 C 404.251 133.388, 318.893 73.179, 239.500 84.603 M 239.500 85.937 C 167.683 93.044, 106.729 146.387, 90.153 216.638 C 88.314 224.433, 88.314 224.433, 82.907 227.195 C 68.905 234.349, 68.556 235.986, 69.270 291.112 C 70.056 351.774, 71.587 354.554, 103.763 353.782 C 117.847 353.444, 124.232 225, 110.165 225 C 101.970 225, 101.835 223.133, 108.679 204.500 C 160.168 64.314, 359.216 66.639, 405.977 207.973 C 411.042 223.282, 410.845 224.437, 403.108 224.801 C 396.717 225.103, 396.717 225.103, 397.362 268.301 C 397.716 292.061, 398.095 321.063, 398.204 332.750 C 398.401 354, 398.401 354, 409.951 353.988 C 442.714 353.954, 444.008 351.477, 443.978 288.812 C 443.952 233.849, 443.341 231.329, 428.876 226.458 C 426.273 225.582, 425.337 224.569, 424.676 221.915 C 402.489 132.834, 326.852 77.292, 239.500 85.937 M 277.649 240.949 C 288.949 241.360, 293.281 241.881, 294.698 243 C 295.743 243.825, 295.538 243.488, 294.243 242.250 C 291.998 240.104, 291.206 240.009, 277.194 240.199 C 262.500 240.398, 262.500 240.398, 277.649 240.949 M 264.624 262.539 C 264.281 263.432, 264.099 276.614, 264.220 291.832 C 264.440 319.500, 264.440 319.500, 264.970 290.500 C 265.540 259.324, 265.550 260.125, 264.624 262.539" stroke="none" fill="#cdcdcd" fill-rule="evenodd"/><path d="M 248 1.265 C 247.725 1.544, 243.450 2.058, 238.500 2.407 C 229.934 3.011, 225.215 3.517, 218.500 4.551 C 214.351 5.191, 208.070 6.402, 203 7.541 C 201.625 7.850, 199.375 8.331, 198 8.610 C 191.146 10, 186.997 11.052, 184.381 12.064 C 182.797 12.676, 180.798 13.320, 179.941 13.495 C 176.518 14.191, 162.125 19.438, 156 22.223 C 143.585 27.867, 136.497 31.329, 136 31.991 C 135.725 32.357, 134.150 33.335, 132.500 34.165 C 126.304 37.280, 120.594 40.773, 112 46.704 C 108.693 48.987, 97.811 57.161, 96.339 58.469 C 95.701 59.036, 93.231 61.075, 90.851 63 C 85.261 67.521, 67.521 85.261, 63 90.851 C 61.075 93.231, 59.036 95.701, 58.469 96.339 C 56.707 98.323, 48.590 109.291, 45.646 113.668 C 43.255 117.222, 43.015 118.160, 44.021 120.039 C 44.669 121.250, 44.752 121.965, 44.205 121.626 C 43.249 121.036, 41.513 123.698, 41.841 125.250 C 41.929 125.663, 41.550 126, 41 126 C 40.450 126, 40 126.484, 40 127.077 C 40 127.683, 41.426 128.030, 43.264 127.872 C 45.060 127.717, 47.161 127.982, 47.934 128.459 C 49.024 129.133, 49.176 128.898, 48.611 127.414 C 48.026 125.879, 48.131 125.747, 49.141 126.750 C 50.526 128.125, 55 128.472, 55 127.203 C 55 126.765, 55.657 125.528, 56.461 124.453 C 57.265 123.379, 61.368 117.855, 65.580 112.178 C 163.169 -19.353, 364.466 -12.394, 457.906 125.741 C 459.608 128.257, 467.416 129.525, 466.499 127.137 C 466.102 126.102, 466.299 125.990, 467.227 126.724 C 468.540 127.763, 474 129.043, 474 128.312 C 474 128.086, 473.313 126.573, 472.474 124.950 C 471.635 123.328, 471.141 122, 471.376 122 C 471.763 122, 476 128.758, 476 129.376 C 476 129.519, 472.287 129.546, 467.750 129.436 C 463.212 129.326, 460.175 129.520, 461 129.868 C 461.825 130.215, 462.545 131.063, 462.600 131.750 C 462.826 134.570, 463.056 134.989, 464.250 134.750 C 464.987 134.603, 465.380 135.321, 465.208 136.500 C 464.994 137.966, 465.158 138.143, 465.820 137.165 C 466.819 135.688, 467.909 135.679, 469.661 137.134 C 470.402 137.748, 471.037 137.750, 471.415 137.138 C 472.093 136.041, 473.860 136.157, 475.905 137.433 C 476.930 138.073, 477.088 137.952, 476.490 136.985 C 475.894 136.019, 476.129 135.836, 477.359 136.308 C 478.784 136.854, 478.879 136.643, 477.973 134.949 C 477.383 133.846, 476.472 133.208, 475.950 133.531 C 475.427 133.854, 475 133.443, 475 132.618 C 475 131.793, 475.408 130.866, 475.907 130.558 C 477.138 129.797, 487.284 149.732, 486.396 151.168 C 485.991 151.823, 486.132 152.037, 486.726 151.669 C 487.849 150.975, 496.604 172.232, 499.527 182.750 C 500.482 186.187, 501.670 189, 502.167 189 C 502.692 189, 502.678 188.267, 502.134 187.250 C 501.619 186.287, 501.182 185.275, 501.163 185 C 501.121 184.378, 500.821 183.328, 498.020 174 C 496.781 169.875, 494.733 164.250, 493.469 161.500 C 492.205 158.750, 490.291 154.475, 489.216 152 C 486.141 144.923, 483.188 138.720, 481.599 136 C 468.738 113.984, 468.198 113.193, 467.139 114.834 C 466.449 115.903, 466.154 115.843, 465.651 114.532 C 465.284 113.576, 465.434 113.150, 466.011 113.507 C 467.314 114.312, 467.285 112.250, 465.972 110.708 C 465.407 110.044, 462.594 106.342, 459.722 102.483 C 448.278 87.105, 425.014 63.439, 414.029 56 C 412.810 55.175, 410.843 53.721, 409.657 52.769 C 408.471 51.816, 407.050 50.676, 406.500 50.236 C 397.164 42.755, 372.925 29.057, 357.500 22.547 C 350.451 19.571, 349.412 19.153, 347.740 18.618 C 346.771 18.308, 345.828 18.155, 345.643 18.277 C 345.459 18.400, 344.676 17.986, 343.904 17.358 C 342.576 16.277, 328.677 11.594, 323.774 10.575 C 318.343 9.446, 316.527 9.002, 313.604 8.087 C 310.113 6.995, 296.085 4.455, 288.500 3.542 C 275.224 1.944, 248.795 0.458, 248 1.265 M 239.915 86.418 C 239.685 86.648, 235.683 87.359, 231.022 87.997 C 203.537 91.760, 168.471 107.135, 150 123.522 C 139.538 132.803, 138.715 133.706, 139.996 134.497 C 140.845 135.022, 141.068 134.919, 140.627 134.205 C 140.251 133.597, 140.829 132.627, 141.911 132.047 C 143.287 131.311, 144.074 131.311, 144.528 132.046 C 144.979 132.775, 145.583 132.761, 146.500 132 C 147.459 131.204, 148.008 131.204, 148.500 132 C 148.992 132.796, 149.541 132.796, 150.500 132 C 151.459 131.204, 152.008 131.204, 152.500 132 C 152.992 132.795, 153.544 132.793, 154.508 131.993 C 155.514 131.158, 156.094 131.329, 156.889 132.695 C 157.517 133.774, 157.951 133.974, 157.970 133.191 C 157.987 132.459, 158.509 132.197, 159.155 132.595 C 159.870 133.038, 160.038 132.870, 159.595 132.155 C 159.178 131.479, 159.500 131, 160.370 131 C 161.188 131, 162.452 130.432, 163.179 129.737 C 163.905 129.042, 165.777 127.656, 167.337 126.657 C 168.897 125.658, 169.885 124.552, 169.532 124.199 C 169.180 123.846, 168.473 124.220, 167.961 125.029 C 167.146 126.317, 167.020 126.313, 166.945 125 C 166.887 123.990, 166.579 124.153, 166 125.500 C 165.265 127.210, 165.130 127.246, 165.070 125.750 C 165.032 124.787, 164.592 124, 164.094 124 C 163.595 124, 163.379 125.013, 163.614 126.250 C 164.016 128.367, 163.982 128.382, 163.037 126.500 C 162.113 124.660, 162.052 124.699, 162.266 126.989 C 162.579 130.321, 159.019 130.422, 157.376 127.128 C 156.571 125.512, 156.050 125.193, 155.743 126.128 C 155.495 126.883, 155.465 126.375, 155.676 125 C 155.905 123.514, 155.734 122.985, 155.254 123.697 C 154.722 124.486, 153.944 124.576, 152.974 123.963 C 151.767 123.200, 151.863 123.005, 153.500 122.888 C 160.348 122.401, 167.766 122.617, 169.377 123.351 C 170.489 123.858, 171.508 123.812, 171.877 123.238 C 172.220 122.705, 173.625 121.923, 175 121.500 C 176.375 121.077, 177.725 120.442, 178 120.090 C 179 118.809, 200.153 109, 201.915 109 C 202.527 109, 203.809 108.574, 204.764 108.053 C 206.507 107.101, 216.326 104.268, 225.323 102.120 C 237.776 99.147, 266.870 98.572, 281 101.019 C 297.481 103.873, 309.808 107.517, 321.795 113.079 C 325.257 114.686, 328.279 116, 328.509 116 C 328.740 116, 332.265 118.025, 336.341 120.500 C 344.240 125.296, 345 125.598, 345 123.941 C 345 123.359, 344.480 123.203, 343.845 123.595 C 343.211 123.988, 342.959 123.875, 343.287 123.345 C 343.614 122.815, 346.253 122.497, 349.152 122.638 C 352.050 122.780, 355.012 122.405, 355.734 121.806 C 356.756 120.957, 356.897 121.105, 356.371 122.475 C 355.792 123.984, 355.986 124.078, 357.741 123.139 C 359.432 122.234, 360.071 122.429, 361.439 124.272 C 362.349 125.497, 362.769 125.825, 362.374 125 C 361.857 123.919, 362.233 124.005, 363.720 125.307 C 365.089 126.506, 365.595 127.833, 365.224 129.253 C 364.685 131.312, 364.635 131.319, 363.902 129.446 C 363.157 127.541, 363.138 127.543, 363 129.500 C 362.859 131.500, 362.859 131.500, 362 129.500 C 361.141 127.500, 361.141 127.500, 360.991 129.500 C 360.905 130.661, 360.626 130.961, 360.327 130.216 C 360.043 129.510, 360.325 128.313, 360.954 127.555 C 361.815 126.518, 361.800 125.995, 360.894 125.435 C 360.204 125.008, 359.951 125.112, 360.302 125.679 C 360.637 126.222, 360.242 126.667, 359.423 126.667 C 358.398 126.667, 358.256 126.344, 358.967 125.633 C 359.535 125.065, 360 124.154, 360 123.609 C 360 123.064, 359.292 123.491, 358.426 124.559 C 357.560 125.626, 357.090 126.012, 357.382 125.416 C 358.001 124.153, 351.615 124.050, 350.363 125.303 C 349.922 125.744, 350.335 125.809, 351.280 125.446 C 352.226 125.083, 353 125.235, 353 125.784 C 353 126.333, 351.412 126.628, 349.471 126.440 C 347.414 126.241, 346.188 126.495, 346.530 127.049 C 346.854 127.572, 348.018 128, 349.118 128 C 350.218 128, 350.840 128.450, 350.500 129 C 350.160 129.550, 350.326 130, 350.870 130 C 351.413 130, 352.564 130.707, 353.429 131.571 C 354.293 132.436, 355 132.701, 355 132.160 C 355 131.077, 356.841 131.144, 358.681 132.294 C 359.330 132.700, 360.158 132.553, 360.520 131.968 C 360.983 131.219, 361.570 131.228, 362.500 132 C 363.459 132.796, 364.008 132.796, 364.500 132 C 364.992 131.204, 365.541 131.204, 366.500 132 C 367.394 132.742, 368.028 132.764, 368.457 132.069 C 368.883 131.380, 369.715 131.430, 370.982 132.221 C 372.021 132.869, 372.708 133.664, 372.509 133.986 C 372.310 134.308, 373.020 134.571, 374.086 134.571 C 376.398 134.571, 371.782 130.149, 359.979 121.054 C 346.803 110.902, 321.823 97, 316.755 97 C 316.010 97, 314.972 96.592, 314.450 96.093 C 312.526 94.256, 297.675 90.532, 282 87.956 C 271.648 86.255, 241.191 85.142, 239.915 86.418 M 40.580 121.413 C 39.711 122.836, 38.343 125.082, 37.539 126.405 C 33.532 133.002, 26.260 147.023, 23.227 154 C 22.390 155.925, 21.281 158.347, 20.762 159.382 C 19.643 161.614, 16.989 168.870, 16.513 171 C 16.328 171.825, 15.648 173.850, 15 175.500 C 14.352 177.150, 13.651 179.175, 13.442 180 C 13.232 180.825, 11.728 186.338, 10.099 192.250 C 8.471 198.162, 7.444 203, 7.819 202.999 C 8.194 202.998, 9.347 199.511, 10.383 195.249 C 15.305 174.999, 28.184 144.001, 38.660 127.191 C 41.166 123.171, 42.978 119.645, 42.688 119.354 C 42.397 119.064, 41.449 119.991, 40.580 121.413 M 150.250 124.731 C 149.563 124.970, 149 125.831, 149 126.642 C 149 127.454, 148.610 127.877, 148.134 127.583 C 147.040 126.907, 143.763 130.430, 144.656 131.322 C 145.019 131.686, 145.880 131.515, 146.569 130.943 C 147.441 130.219, 148.028 130.236, 148.500 131 C 148.992 131.796, 149.541 131.796, 150.500 131 C 151.459 130.204, 152.008 130.204, 152.500 131 C 152.992 131.796, 153.541 131.796, 154.500 131 C 155.430 130.228, 156.017 130.219, 156.480 130.968 C 156.842 131.553, 157.579 131.760, 158.118 131.427 C 158.735 131.046, 158.668 130.304, 157.935 129.422 C 157.296 128.652, 156.344 128.287, 155.819 128.612 C 155.295 128.936, 154.626 128.287, 154.334 127.170 C 153.757 124.963, 152.219 124.044, 150.250 124.731 M 45.057 128.965 C 44.300 129.432, 43.078 129.583, 42.341 129.300 C 41.527 128.988, 40.972 129.517, 40.930 130.643 C 40.865 132.354, 40.792 132.343, 40 130.500 C 39.339 128.961, 39.124 128.875, 39.070 130.128 C 39.032 131.023, 38.352 132.293, 37.559 132.951 C 36.767 133.608, 36.394 134.862, 36.729 135.737 C 37.167 136.878, 36.965 137.096, 36.015 136.510 C 35.067 135.923, 34.927 136.073, 35.523 137.037 C 36.200 138.132, 36.546 138.082, 37.374 136.769 C 38.307 135.289, 38.495 135.294, 39.625 136.827 C 40.770 138.382, 40.906 138.374, 41.547 136.721 C 42.195 135.049, 42.312 135.044, 43.487 136.651 C 44.639 138.227, 44.833 138.181, 45.968 136.060 C 46.645 134.794, 46.780 134.018, 46.266 134.335 C 45.753 134.653, 45.333 134.264, 45.333 133.472 C 45.333 132.305, 45.634 132.266, 46.917 133.266 C 48.339 134.374, 48.352 134.296, 47.048 132.500 C 45.920 130.946, 45.907 130.776, 46.988 131.740 C 48.542 133.125, 49.341 136.329, 47.912 135.446 C 47.410 135.136, 47 135.359, 47 135.941 C 47 137.659, 49.006 137.151, 49.725 135.250 C 50.090 134.287, 50.976 132.905, 51.694 132.179 C 53.671 130.178, 53.263 128.970, 50.750 129.381 C 49.513 129.583, 48.035 129.381, 47.466 128.931 C 46.898 128.482, 45.814 128.497, 45.057 128.965 M 44.606 130.537 C 43.412 131.731, 42.992 131.804, 42.970 130.821 C 42.951 129.999, 42.550 130.169, 41.908 131.271 C 41.341 132.245, 40.506 132.813, 40.052 132.532 C 39.598 132.252, 38.613 132.778, 37.863 133.703 C 37.058 134.696, 36.986 135.092, 37.689 134.671 C 38.349 134.275, 39.282 134.682, 39.790 135.588 C 40.612 137.058, 40.773 137.035, 41.422 135.359 C 42.116 133.569, 42.197 133.574, 43.600 135.481 C 45.008 137.393, 45.044 137.376, 44.655 134.981 C 44.063 131.340, 45.812 129.520, 48 131.500 C 49.489 132.848, 49.870 132.861, 50.912 131.606 C 51.889 130.429, 51.776 130.215, 50.306 130.452 C 49.313 130.612, 47.985 130.335, 47.356 129.837 C 46.630 129.262, 45.625 129.517, 44.606 130.537 M 463.459 131.067 C 463.096 131.653, 463.070 132.403, 463.400 132.733 C 463.730 133.063, 464.007 132.696, 464.015 131.917 C 464.023 131.137, 464.599 131.625, 465.294 133 C 465.990 134.375, 466.996 135.507, 467.530 135.515 C 468.063 135.524, 469.031 135.869, 469.681 136.282 C 470.330 136.695, 471.127 136.603, 471.452 136.078 C 471.776 135.553, 472.923 135.293, 474 135.500 C 475.077 135.707, 476.226 135.444, 476.553 134.914 C 476.881 134.384, 476.553 134.074, 475.824 134.225 C 475.059 134.384, 474.523 133.647, 474.555 132.481 C 474.636 129.458, 469.042 129.345, 468.900 132.367 C 468.811 134.275, 468.722 134.236, 468.053 132 C 467.305 129.500, 467.305 129.500, 466.789 132 C 466.307 134.332, 466.263 134.349, 466.136 132.250 C 465.993 129.885, 464.576 129.258, 463.459 131.067 M 265.024 242 C 258.207 242.761, 258.032 243.506, 258.015 271.750 C 257.998 298.683, 258.164 298.118, 251.498 293.999 C 236.388 284.661, 215.567 298.031, 217.294 315.963 C 219.672 340.659, 253.345 345.404, 262.002 322.264 C 263.825 317.394, 264 314.465, 264 288.917 C 264 258.168, 264.466 256.038, 271.205 255.980 C 291.973 255.803, 294.175 255.299, 296.081 250.287 C 297.273 247.150, 295.285 243.110, 292.164 242.326 C 289.053 241.545, 271.032 241.329, 265.024 242" stroke="none" fill="#ffffff" fill-rule="evenodd"/><path d="M 241 167.637 C 139.893 182.400, 98.293 304.679, 170.117 375.989 C 240.469 445.838, 360.302 407.815, 377.549 310.171 C 391.704 230.033, 320.770 155.990, 241 167.637 M 261.500 241.155 C 257.121 243.550, 257 244.313, 257 269.524 C 257 297.061, 257.404 295.439, 251.310 292.354 C 234.925 284.058, 215.981 295.791, 216.010 314.217 C 216.020 320.877, 219.706 331, 222.121 331 C 222.788 331, 223.075 331.259, 222.759 331.575 C 221.838 332.495, 231.125 341.019, 235.463 343.234 C 246.324 348.780, 259.794 343.503, 265.038 331.647 C 267.163 326.843, 268.661 301.471, 266.750 302.654 C 266.337 302.909, 266 294.766, 266 284.559 C 266 274.352, 266.337 266.053, 266.750 266.118 C 268.725 266.430, 269.349 265.872, 268 265 C 266.728 264.178, 266.775 264.028, 268.309 264.015 C 269.420 264.006, 269.843 263.554, 269.405 262.845 C 268.990 262.175, 269.128 261.961, 269.732 262.334 C 271.028 263.135, 273.256 260.617, 272.241 259.498 C 271.834 259.048, 272.070 259.008, 272.766 259.409 C 273.463 259.810, 273.723 260.670, 273.344 261.319 C 272.966 261.969, 273.589 261.683, 274.729 260.685 C 275.869 259.687, 277.052 259.275, 277.358 259.771 C 278.161 261.070, 281.540 260.621, 283.609 258.942 C 284.717 258.041, 285.101 257.970, 284.631 258.753 C 283.785 260.162, 286.538 260.042, 288.905 258.567 C 289.810 258.002, 290.081 258.060, 289.668 258.728 C 289.276 259.362, 290.160 259.719, 291.940 259.646 C 294.026 259.561, 294.580 259.199, 293.891 258.369 C 293.224 257.565, 293.441 257.255, 294.598 257.355 C 298.487 257.693, 298.930 246.776, 295.180 243.026 C 291.913 239.760, 266.620 238.354, 261.500 241.155" stroke="none" fill="#e80000" fill-rule="evenodd"/><path d="M 353 115.353 C 353 115.615, 355.252 117.483, 358.004 119.503 C 360.757 121.524, 362.720 123.645, 362.366 124.217 C 361.970 124.858, 361.372 124.630, 360.808 123.622 C 360.071 122.304, 359.487 122.204, 357.795 123.110 C 355.980 124.081, 355.788 123.995, 356.371 122.475 C 356.897 121.105, 356.756 120.957, 355.734 121.806 C 355.012 122.405, 352.060 122.780, 349.174 122.640 C 340.911 122.237, 341.034 123.853, 349.753 130.268 C 355.321 134.365, 357.674 135.586, 358.311 134.709 C 358.911 133.882, 359.024 134.019, 358.667 135.144 C 358.195 136.628, 361.635 141, 363.274 141 C 364.151 141, 371.612 149.047, 378.286 157.192 C 393.044 175.202, 401.226 191.288, 410.134 219.798 C 411.616 224.542, 410.027 226, 403.378 226 C 398 226, 398 226, 398.106 232.750 C 398.251 242.022, 399.646 258.495, 399.842 253.250 C 400 249, 400 249, 420.845 249 C 441.690 249, 441.690 249, 441.500 253 C 441.395 255.200, 441.664 257, 442.097 257 C 442.531 257, 443.057 258.913, 443.268 261.250 C 443.478 263.587, 443.729 260.700, 443.825 254.833 C 444.082 239.130, 440.615 232.527, 429.384 227.340 C 424.507 225.087, 424.239 224.757, 423.626 220.285 C 422.939 215.277, 422.752 214.611, 417.922 200 C 411.203 179.674, 388.770 142.170, 384.799 144.625 C 384.144 145.029, 383.972 144.854, 384.378 144.198 C 384.764 143.572, 382.282 140.149, 378.700 136.368 C 374.029 131.438, 372.116 130.004, 371.513 130.979 C 371.047 131.732, 371.083 132.081, 371.595 131.782 C 372.093 131.493, 373.265 132.002, 374.199 132.914 C 375.797 134.472, 375.786 134.571, 374.023 134.571 C 372.991 134.571, 372.310 134.308, 372.509 133.986 C 372.708 133.664, 372.021 132.869, 370.982 132.221 C 369.715 131.430, 368.883 131.380, 368.457 132.069 C 368.028 132.764, 367.394 132.742, 366.500 132 C 365.541 131.204, 364.992 131.204, 364.500 132 C 364.008 132.796, 363.459 132.796, 362.500 132 C 361.570 131.228, 360.983 131.219, 360.520 131.968 C 360.158 132.553, 359.330 132.695, 358.681 132.282 C 356.998 131.211, 355.630 131.274, 354.656 132.467 C 354.163 133.070, 354.059 132.738, 354.406 131.668 C 354.733 130.661, 355.032 129.311, 355.070 128.668 C 355.109 128.026, 355.527 128.400, 356 129.500 C 356.701 131.130, 356.872 131.188, 356.930 129.809 C 357.037 127.238, 354.941 126.509, 354.316 128.899 C 354.014 130.055, 353.353 131, 352.848 131 C 352.343 131, 352.440 130.046, 353.065 128.879 C 353.846 127.420, 353.860 126.968, 353.111 127.431 C 352.409 127.865, 352.258 127.491, 352.685 126.378 C 353.215 124.999, 352.968 124.798, 351.454 125.379 C 350.413 125.779, 349.922 125.744, 350.363 125.303 C 351.615 124.050, 358.001 124.153, 357.382 125.416 C 357.090 126.012, 357.560 125.626, 358.426 124.559 C 359.292 123.491, 360 123.127, 360 123.750 C 360 124.373, 359.543 125.165, 358.984 125.510 C 358.425 125.856, 358.269 126.627, 358.638 127.224 C 359.018 127.837, 358.848 128.024, 358.248 127.653 C 357.567 127.232, 357.392 127.785, 357.761 129.195 C 358.310 131.292, 358.371 131.304, 359.098 129.446 C 359.843 127.541, 359.862 127.543, 360 129.500 C 360.141 131.500, 360.141 131.500, 361 129.500 C 361.859 127.500, 361.859 127.500, 362 129.500 C 362.141 131.500, 362.141 131.500, 363 129.500 C 363.859 127.500, 363.859 127.500, 364 129.500 C 364.141 131.500, 364.141 131.500, 365 129.500 C 365.859 127.500, 365.859 127.500, 365.945 129.500 C 366.010 131.020, 366.238 131.173, 366.894 130.137 C 367.623 128.986, 367.842 128.986, 368.300 130.137 C 368.724 131.204, 368.859 131.215, 368.921 130.191 C 368.966 129.438, 369.531 129.185, 370.250 129.596 C 370.938 129.988, 370.178 128.890, 368.563 127.155 C 366.948 125.420, 365.415 124, 365.158 124 C 364.901 124, 365.505 124.900, 366.500 126 C 367.495 127.100, 367.860 128, 367.310 128 C 366.760 128, 365.495 127.100, 364.500 126 C 363.505 124.900, 363.040 124, 363.467 124 C 363.895 124, 363.760 123.416, 363.168 122.702 C 361.822 121.080, 353 114.704, 353 115.353 M 42.511 119.018 C 43.399 120.454, 39.058 127.154, 37.760 126.352 C 37.129 125.962, 36.983 126.163, 37.403 126.843 C 38.241 128.199, 35.007 134.123, 33.828 133.394 C 33.385 133.120, 33.319 133.668, 33.681 134.612 C 34.164 135.868, 33.985 136.109, 33.015 135.510 C 32.160 134.981, 31.931 135.079, 32.367 135.785 C 33.265 137.238, 25.894 152.053, 24.655 151.287 C 24.125 150.959, 23.980 151.159, 24.334 151.731 C 25.281 153.264, 22.994 159.114, 21.748 158.344 C 21.164 157.984, 20.982 158.162, 21.342 158.744 C 22.254 160.220, 17.854 172.028, 16.665 171.293 C 16.129 170.962, 16.006 171.201, 16.392 171.825 C 17.368 173.405, 14.932 181.076, 13.697 180.313 C 13.130 179.962, 13 180.190, 13.399 180.836 C 13.788 181.466, 12.949 186.694, 11.535 192.453 C 8.600 204.400, 7.116 211.745, 6.475 217.500 C 6.230 219.700, 5.835 222.455, 5.597 223.622 C 2.369 239.453, 3.914 249, 9.705 249 C 15.620 249, 15.620 249, 15.675 252.750 C 15.926 269.899, 16.470 269.997, 17.064 253 C 17.438 242.275, 18.257 229.900, 18.883 225.500 C 21.947 203.962, 29.149 178.756, 37.429 160.586 C 39.385 156.295, 40.694 152.313, 40.338 151.738 C 39.961 151.128, 40.173 150.989, 40.845 151.405 C 41.876 152.042, 42.449 150.847, 42.118 148.750 C 42.053 148.338, 42.498 148, 43.107 148 C 43.716 148, 43.946 147.302, 43.618 146.448 C 43.291 145.594, 43.421 145.142, 43.907 145.442 C 45.306 146.307, 45.971 143.372, 44.672 142.063 C 43.774 141.157, 43.893 141.031, 45.182 141.522 C 47.153 142.272, 50.739 136.575, 48.980 135.488 C 48.423 135.143, 48.256 134.395, 48.609 133.824 C 49.033 133.137, 49.503 133.197, 50 134 C 50.536 134.867, 50.945 134.898, 51.434 134.107 C 51.810 133.498, 51.615 133, 51 133 C 50.385 133, 50.165 132.543, 50.510 131.984 C 50.856 131.425, 51.670 131.272, 52.319 131.644 C 52.969 132.016, 53.149 131.935, 52.721 131.465 C 51.681 130.321, 48.846 129.941, 49.522 131.036 C 49.814 131.508, 49.129 131.717, 48 131.500 C 46.689 131.248, 46.193 131.503, 46.628 132.207 C 47.002 132.813, 46.864 133.034, 46.321 132.698 C 45.778 132.363, 45.333 132.723, 45.333 133.500 C 45.333 134.277, 45.753 134.653, 46.266 134.335 C 46.780 134.018, 46.645 134.794, 45.968 136.060 C 44.833 138.181, 44.639 138.227, 43.487 136.651 C 42.312 135.044, 42.195 135.049, 41.547 136.721 C 40.906 138.374, 40.770 138.382, 39.625 136.827 C 38.495 135.294, 38.307 135.289, 37.374 136.769 C 36.546 138.082, 36.200 138.132, 35.523 137.037 C 34.927 136.073, 35.067 135.923, 36.015 136.510 C 36.965 137.096, 37.167 136.878, 36.729 135.737 C 36.394 134.862, 36.767 133.608, 37.559 132.951 C 38.352 132.293, 39.032 131.023, 39.070 130.128 C 39.124 128.875, 39.339 128.961, 40 130.500 C 40.699 132.126, 40.873 132.184, 40.930 130.812 C 41.005 129.007, 44.554 128.644, 46.661 130.225 C 47.335 130.731, 48.071 130.694, 48.415 130.137 C 48.742 129.609, 50.143 129.302, 51.529 129.454 C 52.915 129.606, 54.289 129.341, 54.583 128.865 C 54.877 128.389, 54.056 128, 52.759 128 C 51.462 128, 49.833 127.438, 49.141 126.750 C 48.131 125.747, 48.026 125.879, 48.611 127.414 C 49.176 128.898, 49.024 129.133, 47.934 128.459 C 47.161 127.982, 45.060 127.717, 43.264 127.872 C 41.426 128.030, 40 127.683, 40 127.077 C 40 126.484, 40.450 126, 41 126 C 41.550 126, 41.929 125.662, 41.841 125.250 C 41.513 123.698, 43.249 121.036, 44.205 121.626 C 44.758 121.969, 44.696 121.301, 44.065 120.121 C 43.440 118.954, 42.694 118, 42.406 118 C 42.118 118, 42.165 118.458, 42.511 119.018 M 173.750 121.689 C 172.787 121.941, 172 122.612, 172 123.180 C 172 123.769, 171.247 123.908, 170.250 123.502 C 167.722 122.474, 155.894 122.238, 153.250 123.163 C 151.765 123.683, 151 123.560, 151 122.801 C 151 122.169, 149.877 122.707, 148.504 123.996 C 147.131 125.286, 146.232 126.565, 146.506 126.839 C 146.780 127.113, 146.290 128.128, 145.416 129.093 C 144.029 130.626, 146.010 131.354, 147.750 129.952 C 147.887 129.841, 148.562 129.694, 149.249 129.625 C 150.737 129.476, 150.926 125.815, 149.500 124.760 C 148.950 124.353, 149.945 124.179, 151.712 124.374 C 153.478 124.569, 155.124 124.227, 155.368 123.614 C 155.612 123.001, 155.742 123.839, 155.656 125.475 C 155.565 127.206, 156.023 128.513, 156.750 128.600 C 159.261 128.901, 159.380 129.020, 158.278 130.122 C 157.661 130.739, 157.380 131.976, 157.654 132.872 C 158.035 134.121, 157.882 134.080, 156.995 132.695 C 156.121 131.330, 155.513 131.159, 154.508 131.993 C 153.544 132.793, 152.992 132.795, 152.500 132 C 152.008 131.204, 151.459 131.204, 150.500 132 C 149.541 132.796, 148.992 132.796, 148.500 132 C 148.008 131.204, 147.459 131.204, 146.500 132 C 145.630 132.722, 144.966 132.754, 144.557 132.092 C 144.215 131.540, 143.163 131.365, 142.218 131.704 C 140.937 132.163, 141.132 131.579, 142.983 129.410 C 144.349 127.810, 143.356 128.487, 140.777 130.916 C 138.197 133.344, 136.364 135.819, 136.704 136.416 C 137.043 137.012, 136.952 137.166, 136.502 136.759 C 135.350 135.715, 132.884 137.985, 133.671 139.363 C 134.028 139.988, 133.952 140.166, 133.502 139.759 C 132.383 138.744, 129.865 140.972, 130.666 142.268 C 131.019 142.840, 130.840 143.019, 130.266 142.665 C 129.033 141.903, 118.891 154.512, 112.583 164.649 C 101.591 182.313, 95.054 197.955, 90.372 217.798 C 88.661 225.045, 88.617 225.109, 83.942 227.120 C 72.626 231.988, 69.938 238.032, 70.216 257.985 C 70.432 273.457, 70.433 273.466, 70.747 261.250 C 71.081 248.235, 114 240.214, 114 253.167 C 114 255.458, 114.207 257.127, 114.459 256.874 C 118.968 252.365, 114.791 226.047, 109.526 225.792 C 96.125 225.143, 118.177 171.238, 139.870 151.616 C 141.016 150.580, 141.669 149.273, 141.322 148.712 C 140.975 148.150, 141.150 147.975, 141.712 148.322 C 143.009 149.123, 146.261 145.620, 145.252 144.509 C 144.838 144.052, 144.957 143.938, 145.515 144.253 C 146.073 144.569, 149.561 141.998, 153.265 138.540 C 156.969 135.083, 160 132.476, 160 132.749 C 160 133.022, 160.670 132.689, 161.489 132.009 C 162.308 131.329, 162.751 130.405, 162.473 129.956 C 162.195 129.506, 162.425 128.856, 162.984 128.510 C 163.543 128.165, 164 128.414, 164 129.063 C 164 129.961, 164.335 129.967, 165.397 129.086 C 166.189 128.428, 166.568 126.969, 166.272 125.713 C 165.802 123.719, 165.886 123.663, 167.125 125.153 C 168.387 126.670, 168.870 126.568, 173 123.922 C 177.341 121.139, 177.484 120.713, 173.750 121.689 M 472.474 124.950 C 473.313 126.573, 474 128.086, 474 128.312 C 474 129.043, 468.540 127.763, 467.227 126.724 C 466.299 125.990, 466.102 126.102, 466.499 127.137 C 466.928 128.254, 466.185 128.475, 463.022 128.173 C 460.810 127.963, 459 127.387, 459 126.895 C 459 126.403, 458.544 126, 457.986 126 C 457.428 126, 458.158 127.793, 459.608 129.984 C 462.065 133.696, 464.020 134.459, 463.985 131.691 C 463.975 130.955, 463.557 131.073, 462.890 132 C 461.969 133.281, 461.890 133.254, 462.350 131.813 C 462.690 130.748, 462.264 129.980, 461.195 129.733 C 460.263 129.517, 463.100 129.397, 467.500 129.465 C 475.262 129.586, 475.490 129.659, 475.169 131.904 C 474.968 133.304, 475.245 133.967, 475.868 133.581 C 476.436 133.231, 477.383 133.846, 477.973 134.949 C 478.879 136.643, 478.784 136.854, 477.359 136.308 C 476.129 135.836, 475.894 136.019, 476.490 136.985 C 477.088 137.952, 476.930 138.073, 475.905 137.433 C 473.860 136.157, 472.093 136.041, 471.415 137.138 C 471.059 137.714, 470.197 137.578, 469.257 136.799 C 467.448 135.297, 467.034 135.341, 465.874 137.165 C 465.377 137.946, 465.264 136.737, 465.601 134.250 C 465.946 131.711, 465.777 130, 465.183 130 C 464.635 130, 464.409 130.849, 464.681 131.887 C 464.952 132.925, 464.702 134.066, 464.125 134.423 C 463.397 134.873, 463.415 135.817, 464.184 137.504 C 464.794 138.842, 465.626 139.731, 466.033 139.479 C 466.441 139.228, 466.712 139.804, 466.637 140.761 C 466.562 141.717, 467.084 142.380, 467.797 142.234 C 468.511 142.088, 468.985 142.538, 468.851 143.234 C 468.425 145.449, 470.097 149.058, 471.227 148.360 C 471.822 147.992, 472.027 148.147, 471.683 148.704 C 471.338 149.262, 473.256 154.693, 475.944 160.773 C 489.541 191.533, 495.679 219, 496.106 251 C 496.299 265.500, 496.299 265.500, 497.287 257.250 C 498.276 249, 498.276 249, 504.179 249 C 510.082 249, 510.082 249, 509.478 242.750 C 509.145 239.313, 508.732 234.250, 508.560 231.500 C 508.016 222.822, 506.447 212.114, 505.595 211.262 C 505.338 211.005, 505.548 209.690, 506.061 208.340 C 506.646 206.801, 506.641 206.104, 506.048 206.471 C 504.900 207.180, 503.539 200.644, 504.379 198.456 C 504.764 197.451, 504.574 197.145, 503.844 197.597 C 503.069 198.076, 502.868 197.469, 503.211 195.679 C 503.486 194.239, 503.371 193.271, 502.955 193.528 C 501.866 194.201, 499.678 184.346, 500.572 182.797 C 500.984 182.084, 500.937 181.849, 500.469 182.275 C 499.575 183.088, 492.810 165.064, 492.614 161.345 C 492.551 160.161, 492.086 159.447, 491.580 159.760 C 491.071 160.074, 490.954 159.562, 491.319 158.612 C 491.682 157.666, 491.566 157.150, 491.061 157.463 C 489.872 158.197, 488.651 154.373, 489.590 152.854 C 490.070 152.077, 489.869 151.963, 488.985 152.510 C 488.002 153.117, 487.839 152.862, 488.353 151.523 C 488.966 149.926, 488.847 149.878, 487.331 151.109 C 486.305 151.941, 485.907 152.014, 486.341 151.291 C 486.740 150.627, 485.462 146.896, 483.500 143 C 481.538 139.104, 480.243 135.416, 480.621 134.804 C 480.999 134.192, 480.870 133.963, 480.332 134.295 C 479.795 134.626, 477.658 131.996, 475.583 128.449 C 471.745 121.887, 469.701 119.586, 472.474 124.950 M 156.518 124.943 C 156.133 126.157, 156.083 127.417, 156.409 127.742 C 156.734 128.067, 157.007 127.471, 157.015 126.417 C 157.027 124.815, 157.247 124.911, 158.352 127 C 159.160 128.528, 159.327 129.955, 158.780 130.671 C 158.144 131.504, 158.471 131.690, 159.907 131.314 C 161.019 131.023, 161.874 130.496, 161.808 130.143 C 161.742 129.789, 162.179 128.375, 162.780 127 C 163.567 125.201, 163.891 124.991, 163.937 126.250 C 163.971 127.213, 164.408 128, 164.906 128 C 165.903 128, 165.153 124.047, 164.133 123.923 C 163.785 123.881, 162.714 123.696, 161.754 123.513 C 160.794 123.329, 159.725 123.636, 159.379 124.196 C 158.975 124.849, 158.476 124.770, 157.984 123.975 C 157.449 123.109, 157.008 123.401, 156.518 124.943 M 467.100 131.750 C 467.045 132.988, 467 134.225, 467 134.500 C 467 134.775, 467.337 135.038, 467.750 135.085 C 468.163 135.132, 469.022 135.604, 469.661 136.134 C 470.408 136.753, 471.040 136.745, 471.432 136.110 C 471.768 135.567, 472.923 135.293, 474 135.500 C 475.077 135.707, 476.226 135.444, 476.553 134.914 C 476.881 134.384, 476.553 134.074, 475.824 134.225 C 475.059 134.384, 474.523 133.647, 474.555 132.481 C 474.636 129.458, 469.042 129.345, 468.900 132.367 C 468.810 134.290, 468.722 134.254, 468 132 C 467.232 129.602, 467.195 129.591, 467.100 131.750" stroke="none" fill="#e6e6e6" fill-rule="evenodd"/><path d="M 234 20.026 C 64.264 36.044, -34.404 223.670, 48.663 372.461 C 137.957 532.407, 366.511 536.031, 461.037 379 C 560.944 213.029, 427.338 1.781, 234 20.026 M 239.500 84.603 C 160.745 95.934, 107.569 143.365, 88.021 219.716 C 87.102 223.304, 86.312 224.214, 82.721 225.819 C 77.975 227.941, 74.059 231.562, 70.743 236.893 C 68.134 241.088, 66.638 329.229, 69.025 338.095 C 72.293 350.231, 81.438 354.949, 101.750 354.978 C 117 355, 117 355, 117 289.500 C 117 224, 117 224, 111 224 C 103.594 224, 103.627 224.241, 108.880 208.242 C 155.227 67.101, 356.758 66.254, 404.314 207 C 409.828 223.319, 409.814 223.437, 402.243 223.798 C 386.254 224.559, 394.442 354.457, 410.500 354.794 C 444.321 355.505, 446 352.393, 446 288.997 C 446 235.729, 445.167 232.190, 431.212 226.187 C 426.337 224.090, 426.337 224.090, 424.074 214.795 C 404.251 133.388, 318.893 73.179, 239.500 84.603 M 247.500 165.732 C 154.414 172.413, 102.148 277.641, 152.747 356.500 C 207.830 442.346, 338.785 427.216, 373.452 331 C 403.578 247.391, 336.478 159.346, 247.500 165.732" stroke="none" fill="#3e3e3e" fill-rule="evenodd"/><path d="M 241 167.637 C 139.893 182.400, 98.293 304.679, 170.117 375.989 C 240.469 445.838, 360.302 407.815, 377.549 310.171 C 391.704 230.033, 320.770 155.990, 241 167.637 M 261.500 241.155 C 257.121 243.550, 257 244.313, 257 269.524 C 257 297.061, 257.404 295.439, 251.310 292.354 C 234.925 284.058, 215.981 295.791, 216.010 314.217 C 216.020 320.877, 219.706 331, 222.121 331 C 222.788 331, 223.075 331.259, 222.759 331.575 C 221.838 332.495, 231.125 341.019, 235.463 343.234 C 246.324 348.780, 259.794 343.503, 265.038 331.647 C 267.163 326.843, 268.661 301.471, 266.750 302.654 C 266.337 302.909, 266 294.766, 266 284.559 C 266 274.352, 266.337 266.053, 266.750 266.118 C 268.725 266.430, 269.349 265.872, 268 265 C 266.728 264.178, 266.775 264.028, 268.309 264.015 C 269.420 264.006, 269.843 263.554, 269.405 262.845 C 268.990 262.175, 269.128 261.961, 269.732 262.334 C 271.028 263.135, 273.256 260.617, 272.241 259.498 C 271.834 259.048, 272.070 259.008, 272.766 259.409 C 273.463 259.810, 273.723 260.670, 273.344 261.319 C 272.966 261.969, 273.589 261.683, 274.729 260.685 C 275.869 259.687, 277.052 259.275, 277.358 259.771 C 278.161 261.070, 281.540 260.621, 283.609 258.942 C 284.717 258.041, 285.101 257.970, 284.631 258.753 C 283.785 260.162, 286.538 260.042, 288.905 258.567 C 289.810 258.002, 290.081 258.060, 289.668 258.728 C 289.276 259.362, 290.160 259.719, 291.940 259.646 C 294.026 259.561, 294.580 259.199, 293.891 258.369 C 293.224 257.565, 293.441 257.255, 294.598 257.355 C 298.487 257.693, 298.930 246.776, 295.180 243.026 C 291.913 239.760, 266.620 238.354, 261.500 241.155" stroke="none" fill="#e80000" fill-rule="evenodd"/><path d="M 409.769 222.776 C 409.246 224.775, 408.556 225, 402.951 225 C 396.715 225, 396.715 225, 397.361 268.250 C 397.716 292.038, 398.095 321.063, 398.204 332.750 C 398.457 359.952, 429.213 365.198, 441.529 340.140 C 444.379 334.341, 445.205 259.071, 442.439 257.213 C 441.855 256.821, 441.436 254.813, 441.507 252.750 C 441.637 249, 441.637 249, 420.818 249 C 400 249, 400 249, 399.842 253.250 C 399.646 258.495, 398.251 242.022, 398.106 232.750 C 398 226, 398 226, 403.378 226 C 408.834 226, 411.637 224.411, 410.770 221.809 C 410.539 221.118, 410.089 221.552, 409.769 222.776 M 2.500 255.805 C 2.500 270.272, 2.757 281.072, 3.071 279.805 C 3.420 278.397, 3.934 280.419, 4.393 285 C 4.806 289.125, 6.033 297.140, 7.120 302.811 C 8.207 308.483, 8.820 314.108, 8.482 315.311 C 8.026 316.942, 8.121 317.135, 8.855 316.069 C 9.611 314.972, 10.003 315.498, 10.532 318.319 C 10.912 320.344, 11.611 322, 12.087 322 C 12.562 322, 12.499 323.187, 11.947 324.639 C 11.395 326.090, 11.182 327.515, 11.472 327.805 C 11.762 328.096, 12 327.808, 12 327.167 C 12 326.525, 12.436 326, 12.969 326 C 13.501 326, 13.696 326.629, 13.400 327.399 C 13.105 328.168, 13.325 329.083, 13.888 329.431 C 14.452 329.779, 14.631 330.798, 14.286 331.696 C 13.869 332.785, 14.048 333.088, 14.827 332.607 C 15.699 332.068, 15.735 332.568, 14.969 334.582 C 14.405 336.064, 14.182 337.515, 14.472 337.805 C 14.762 338.096, 15 337.808, 15 337.167 C 15 336.525, 15.400 336, 15.889 336 C 16.378 336, 16.757 336.563, 16.731 337.250 C 16.612 340.470, 17.086 342.065, 17.997 341.502 C 18.660 341.092, 18.660 341.765, 17.997 343.508 C 16.607 347.164, 16.751 347.702, 18.514 345.441 C 19.347 344.374, 19.969 343.950, 19.896 344.500 C 19.601 346.722, 20.073 347.185, 21.460 346.033 C 23.129 344.648, 23.011 346.345, 21.092 351.307 C 20.495 352.851, 20.416 353.861, 20.918 353.551 C 21.419 353.241, 22.088 353.553, 22.405 354.244 C 22.722 354.935, 22.751 354.551, 22.468 353.391 C 22.155 352.106, 22.624 350.739, 23.669 349.891 C 24.806 348.969, 25.131 348.921, 24.633 349.750 C 24.073 350.683, 25.135 351, 28.819 351 C 33.619 351, 36.829 352.750, 35.241 354.502 C 34.834 354.952, 35.063 354.997, 35.750 354.601 C 36.567 354.131, 37 354.552, 37 355.819 C 37 356.884, 37.675 358.315, 38.500 359 C 39.536 359.860, 40 359.898, 40 359.122 C 40 358.505, 39.550 358, 39 358 C 38.450 358, 38 357.300, 38 356.445 C 38 355.085, 35.975 349.899, 32.944 343.500 C 31.520 340.495, 26.249 323.644, 24.545 316.651 C 21.139 302.677, 19.860 294.740, 18.718 280.500 C 17.900 270.301, 17.315 266.620, 16.889 269 C 16.301 272.287, 15.878 266.620, 15.675 252.750 C 15.620 249, 15.620 249, 9.676 249 C 3.731 249, 3.731 249, 4.232 242 C 4.508 238.150, 4.373 235, 3.933 235 C 3.493 235, 2.990 233.762, 2.816 232.250 C 2.642 230.738, 2.500 241.337, 2.500 255.805 M 69.553 290.124 C 69.935 351.839, 71.395 354.560, 103.723 353.782 C 115.421 353.500, 115.421 353.500, 115.629 301.500 C 115.743 272.900, 115.487 251.300, 115.060 253.500 C 114.284 257.500, 114.284 257.500, 114.142 253.250 C 113.709 240.273, 71.014 248.152, 70.791 261.250 C 70.582 273.500, 70.582 273.500, 69.926 259 C 69.566 251.025, 69.398 265.031, 69.553 290.124 M 257.432 271 C 257.432 284.475, 257.574 289.988, 257.747 283.250 C 257.920 276.512, 257.920 265.488, 257.747 258.750 C 257.574 252.012, 257.432 257.525, 257.432 271 M 504.375 248.737 C 497.730 249.119, 497.634 249.352, 496.407 268 C 495.116 287.643, 488.012 326.536, 484.993 330.500 C 484.574 331.050, 483.912 332.993, 483.521 334.817 C 483.131 336.642, 482.182 339.342, 481.412 340.817 C 480.642 342.293, 480.010 344.011, 480.006 344.636 C 480.003 345.260, 479.328 347.060, 478.506 348.636 C 476.560 352.367, 476.458 355.123, 478.362 352.519 C 479.490 350.977, 480.866 350.698, 486.362 350.897 C 492.686 351.126, 493.931 350.605, 492.250 348.429 C 491.837 347.895, 492.288 348.305, 493.250 349.340 C 495.286 351.529, 495.293 351.509, 494.064 347.224 C 493.550 345.430, 493.502 344.193, 493.959 344.475 C 495.089 345.173, 496.177 342.104, 495.311 340.660 C 494.916 340, 495.327 340.076, 496.263 340.835 C 497.751 342.041, 497.824 341.872, 497.019 339.065 C 496.529 337.358, 496.483 336.180, 496.916 336.448 C 497.998 337.117, 500.262 329.233, 499.392 327.825 C 498.988 327.172, 499.134 326.965, 499.736 327.337 C 500.355 327.719, 501.062 326.485, 501.470 324.310 C 501.998 321.495, 502.389 320.972, 503.145 322.069 C 503.872 323.124, 503.964 322.907, 503.496 321.242 C 502.610 318.094, 505.042 307.517, 506.262 309.212 C 506.907 310.109, 507 309.921, 506.566 308.595 C 505.769 306.155, 508.177 290.154, 508.992 292.478 C 509.326 293.430, 509.577 291.350, 509.550 287.855 C 509.522 284.360, 509.896 273.962, 510.379 264.750 C 510.863 255.537, 511.088 248.087, 510.879 248.193 C 510.671 248.299, 507.744 248.544, 504.375 248.737" stroke="none" fill="#e4e4e4" fill-rule="evenodd"/><path d="M 247.500 165.732 C 154.414 172.413, 102.148 277.641, 152.747 356.500 C 207.830 442.346, 338.785 427.216, 373.452 331 C 403.578 247.391, 336.478 159.346, 247.500 165.732 M 241 167.637 C 139.893 182.400, 98.293 304.679, 170.117 375.989 C 240.469 445.838, 360.302 407.815, 377.549 310.171 C 391.704 230.033, 320.770 155.990, 241 167.637 M 294.814 254.119 C 292.170 256.955, 291.956 257, 281.175 257 C 264.327 257, 265.608 254.296, 265 291.160 C 264.554 318.252, 264.300 321.875, 262.636 325 C 255.351 338.678, 239.073 342.967, 226.593 334.498 C 221.347 330.939, 221.383 331.370, 226.765 336.605 C 240.545 350.007, 257.912 347.757, 265.038 331.647 C 267.163 326.843, 268.661 301.471, 266.750 302.654 C 266.337 302.909, 266 294.766, 266 284.559 C 266 274.352, 266.337 266.053, 266.750 266.118 C 268.725 266.430, 269.349 265.872, 268 265 C 266.728 264.178, 266.775 264.028, 268.309 264.015 C 269.420 264.006, 269.843 263.554, 269.405 262.845 C 268.990 262.175, 269.128 261.961, 269.732 262.334 C 271.028 263.135, 273.256 260.617, 272.241 259.498 C 271.834 259.048, 272.070 259.008, 272.766 259.409 C 273.463 259.810, 273.723 260.670, 273.344 261.319 C 272.966 261.969, 273.589 261.683, 274.729 260.685 C 275.869 259.687, 277.052 259.275, 277.358 259.771 C 278.161 261.070, 281.540 260.621, 283.609 258.942 C 284.717 258.041, 285.101 257.970, 284.631 258.753 C 283.785 260.162, 286.538 260.042, 288.905 258.567 C 289.810 258.002, 290.081 258.060, 289.668 258.728 C 289.276 259.362, 290.160 259.719, 291.940 259.646 C 294.026 259.561, 294.580 259.199, 293.891 258.369 C 293.224 257.565, 293.441 257.255, 294.598 257.355 C 295.515 257.435, 296.387 256.825, 296.536 256 C 296.685 255.175, 297.123 253.713, 297.510 252.750 C 298.431 250.461, 298.038 250.660, 294.814 254.119" stroke="none" fill="#682b2b" fill-rule="evenodd"/></svg>